<svg width="700" height="700" viewBox="0 0 700 700" fill="none" xmlns="http://www.w3.org/2000/svg">
<rect width="700" height="700" rx="90" fill="black"/>
<path d="M54.1836 337.971C54.1836 324.982 56.0879 313.215 59.8965 302.668C63.7051 292.121 68.9785 282.746 75.7168 274.543C82.4551 266.34 90.4141 259.309 99.5938 253.449C108.773 247.492 118.734 242.609 129.477 238.801C140.316 234.895 151.693 232.014 163.607 230.158C175.521 228.303 187.582 227.375 199.789 227.375C208.773 227.375 217.27 227.912 225.277 228.986C233.285 230.061 240.756 231.525 247.689 233.381C254.721 235.139 261.166 237.189 267.025 239.533C272.885 241.877 278.158 244.318 282.846 246.857L293.539 232.941H324.154V307.355L285.336 314.68C282.992 306.77 279.525 299.396 274.936 292.561C270.346 285.725 264.828 279.816 258.383 274.836C251.938 269.855 244.613 265.949 236.41 263.117C228.305 260.188 219.467 258.723 209.896 258.723C197.592 258.723 187.045 260.92 178.256 265.314C169.467 269.611 162.24 275.422 156.576 282.746C151.01 289.973 146.908 298.371 144.271 307.941C141.635 317.512 140.316 327.521 140.316 337.971C140.316 350.764 142.172 362.092 145.883 371.955C149.691 381.818 154.965 390.119 161.703 396.857C168.441 403.498 176.4 408.527 185.58 411.945C194.857 415.363 205.014 417.072 216.049 417.072C224.643 417.072 232.748 415.998 240.365 413.85C247.982 411.604 254.672 408.234 260.434 403.742C266.293 399.152 271.029 393.391 274.643 386.457C278.354 379.523 280.6 371.32 281.381 361.848H326.205C326.205 371.125 324.691 379.719 321.664 387.629C318.734 395.539 314.535 402.717 309.066 409.162C303.695 415.607 297.201 421.32 289.584 426.301C281.967 431.184 273.471 435.285 264.096 438.605C254.721 441.926 244.613 444.416 233.773 446.076C223.031 447.834 211.752 448.713 199.936 448.713C188.803 448.713 177.426 447.932 165.805 446.369C154.281 444.904 143.1 442.463 132.26 439.045C121.518 435.627 111.41 431.135 101.938 425.568C92.4648 419.904 84.1641 412.971 77.0352 404.768C70.0039 396.564 64.4375 386.945 60.3359 375.91C56.2344 364.875 54.1836 352.229 54.1836 337.971ZM355.062 342.072C355.062 329.377 356.869 317.707 360.482 307.062C364.096 296.418 369.125 286.848 375.57 278.352C382.016 269.855 389.682 262.434 398.568 256.086C407.553 249.738 417.367 244.416 428.012 240.119C438.754 235.822 450.131 232.648 462.143 230.598C474.154 228.449 486.508 227.375 499.203 227.375C506.82 227.375 514.438 227.863 522.055 228.84C529.77 229.816 537.24 231.184 544.467 232.941C551.693 234.699 558.578 236.799 565.121 239.24C571.762 241.682 577.865 244.367 583.432 247.297L594.564 232.941H627.377V304.426H590.17C586.068 297.102 581.088 290.607 575.229 284.943C569.467 279.279 563.07 274.494 556.039 270.588C549.105 266.682 541.684 263.752 533.773 261.799C525.961 259.748 517.904 258.723 509.604 258.723C500.521 258.723 491.879 260.285 483.676 263.41C475.473 266.535 468.295 271.32 462.143 277.766C455.99 284.211 451.107 292.414 447.494 302.375C443.881 312.238 442.074 323.957 442.074 337.531C442.074 350.52 444.027 361.994 447.934 371.955C451.938 381.818 457.26 390.119 463.9 396.857C470.541 403.498 478.256 408.527 487.045 411.945C495.932 415.363 505.258 417.072 515.023 417.072C523.617 417.072 531.039 416.486 537.289 415.314C543.539 414.045 549.203 411.848 554.281 408.723V372.102L511.654 331.086H629.281V443H594.564L586.508 428.352C580.746 432.062 574.594 435.236 568.051 437.873C561.508 440.412 554.672 442.463 547.543 444.025C540.414 445.686 533.09 446.857 525.57 447.541C518.051 448.322 510.434 448.713 502.719 448.713C489.535 448.713 476.693 447.932 464.193 446.369C451.791 444.807 440.121 442.316 429.184 438.898C418.246 435.383 408.236 430.891 399.154 425.422C390.072 419.855 382.26 413.166 375.717 405.354C369.174 397.443 364.096 388.264 360.482 377.814C356.869 367.365 355.062 355.451 355.062 342.072Z" fill="white"/>
</svg>
